<svg width="40" height="32" viewBox="0 0 40 32" fill="none" xmlns="http://www.w3.org/2000/svg">
<path d="M15.12 0V2.76C13.46 2.1 11.68 1.76 9.9 1.76C6.32 1.76 2.74 3.12 0 5.86L6.66 12.52H8.88V14.74C10.6 16.46 12.84 17.36 15.1 17.46V22H9.12V28C9.12 30.2 10.92 32 13.12 32H33.12C36.44 32 39.12 29.32 39.12 26V0H15.12ZM12.9 12.82V8.52H8.34L6.26 6.44C7.4 6 8.64 5.76 9.9 5.76C12.58 5.76 15.08 6.8 16.98 8.68L19.8 11.5L19.4 11.9C18.38 12.92 17.02 13.5 15.56 13.5C14.62 13.5 13.7 13.26 12.9 12.82ZM35.12 26C35.12 27.1 34.22 28 33.12 28C32.02 28 31.12 27.1 31.12 26V22H19.12V16.82C20.26 16.36 21.32 15.68 22.24 14.76L22.64 14.36L28.3 20H31.12V17.18L19.12 5.24V4H35.12V26Z" fill="#E14B32"/>
</svg>
